PathFileType	4	(X/Y/Z)
DataRate	CameraRate	NumFrames	NumMarkers	Units	OrigDataRate	OrigDataStartFrame	OrigNumFrames
120	120	4	142	mm	120	346	553	
Frame#	Time	 STRN			 T1			 T8			 T10			 T12			 C7			 CLAV			 LANK			 RANK			 LANI			 RANI			 LASI			 RASI			 LPSI			 RPSI			 LSHO			 RSHO			 LTOE			 RTOE			 RHEE			 LHEE			 LKNE			 RKNE			 LKNI			 RKNI			 RIWR			 LIWR			 RELB			 LELB			 RELBIN			 LELBIN			 LOWR			 ROWR			 RCLAV			 LCLAV			 RFHD			 LBHD			 LFHD			 RBHD			 LMT1			 LMT5			 RMT1			 RMT5			 Tracking_L5			 Tracking_L4			 Tracking_L3			 Tracking_L2			 Tracking_L1			 Tracking_T11			 Tracking_T9			 Tracking_T7			 Tracking_T6			 Tracking_T5			 Tracking_T4			 Tracking_T3			 Tracking_T2			 rthumb			 rindex			 rmiddle			 rring			 rpinky			 lthumb			 lindex			 lmiddle			 lring			 lpinky			 ROOT			 Spine1			 Spine2			 Spine3			 LHIPJ			 RHIPJ			 LKJC			 RKJC			 LAJC			 RAJC			 LFOOT			 RFOOT			 NECK			 LCOL			 RCOL			 HEAD			 LSHOULDER			 RSHOULDER			 LELC			 RELC			 LWRIST			 RWRIST			 left_index1			 left_index2			 left_index3			 left_middle1			 left_middle2			 left_middle3			 left_pinky1			 left_pinky2			 left_pinky3			 left_ring1			 left_ring2			 left_ring3			 left_thumb1			 left_thumb2			 left_thumb3			 right_index1			 right_index2			 right_index3			 right_middle1			 right_middle2			 right_middle3			 right_pinky1			 right_pinky2			 right_pinky3			 right_ring1			 right_ring2			 right_ring3			 right_thumb1			 right_thumb2			 right_thumb3			 MASI			 MPSI			 MHIPJ			 CENTER			 Virtual_LWRIST			 Virtual_RWRIST			 Virtual_LAJC			 Virtual_RAJC			 Virtual_LKJC			 Virtual_RKJC			 Virtual_LELC			 Virtual_RELC			 Virtual_Ground_RAJC			 Virtual_Ground_LAJC			 Virtual_Ground_RFOOT			 Virtual_Ground_LFOOT			 Virtual_Ground_RTOE			 Virtual_Ground_LTOE			 Virtual_Ground_RMT1			 Virtual_Ground_LMT1			 Virtual_Ground_RMT5			 Virtual_Ground_LMT5			 Virtual_Ground_RHEE			 Virtual_Ground_LHEE		
		X1	Y1	Z1	X2	Y2	Z2	X3	Y3	Z3	X4	Y4	Z4	X5	Y5	Z5	X6	Y6	Z6	X7	Y7	Z7	X8	Y8	Z8	X9	Y9	Z9	X10	Y10	Z10	X11	Y11	Z11	X12	Y12	Z12	X13	Y13	Z13	X14	Y14	Z14	X15	Y15	Z15	X16	Y16	Z16	X17	Y17	Z17	X18	Y18	Z18	X19	Y19	Z19	X20	Y20	Z20	X21	Y21	Z21	X22	Y22	Z22	X23	Y23	Z23	X24	Y24	Z24	X25	Y25	Z25	X26	Y26	Z26	X27	Y27	Z27	X28	Y28	Z28	X29	Y29	Z29	X30	Y30	Z30	X31	Y31	Z31	X32	Y32	Z32	X33	Y33	Z33	X34	Y34	Z34	X35	Y35	Z35	X36	Y36	Z36	X37	Y37	Z37	X38	Y38	Z38	X39	Y39	Z39	X40	Y40	Z40	X41	Y41	Z41	X42	Y42	Z42	X43	Y43	Z43	X44	Y44	Z44	X45	Y45	Z45	X46	Y46	Z46	X47	Y47	Z47	X48	Y48	Z48	X49	Y49	Z49	X50	Y50	Z50	X51	Y51	Z51	X52	Y52	Z52	X53	Y53	Z53	X54	Y54	Z54	X55	Y55	Z55	X56	Y56	Z56	X57	Y57	Z57	X58	Y58	Z58	X59	Y59	Z59	X60	Y60	Z60	X61	Y61	Z61	X62	Y62	Z62	X63	Y63	Z63	X64	Y64	Z64	X65	Y65	Z65	X66	Y66	Z66	X67	Y67	Z67	X68	Y68	Z68	X69	Y69	Z69	X70	Y70	Z70	X71	Y71	Z71	X72	Y72	Z72	X73	Y73	Z73	X74	Y74	Z74	X75	Y75	Z75	X76	Y76	Z76	X77	Y77	Z77	X78	Y78	Z78	X79	Y79	Z79	X80	Y80	Z80	X81	Y81	Z81	X82	Y82	Z82	X83	Y83	Z83	X84	Y84	Z84	X85	Y85	Z85	X86	Y86	Z86	X87	Y87	Z87	X88	Y88	Z88	X89	Y89	Z89	X90	Y90	Z90	X91	Y91	Z91	X92	Y92	Z92	X93	Y93	Z93	X94	Y94	Z94	X95	Y95	Z95	X96	Y96	Z96	X97	Y97	Z97	X98	Y98	Z98	X99	Y99	Z99	X100	Y100	Z100	X101	Y101	Z101	X102	Y102	Z102	X103	Y103	Z103	X104	Y104	Z104	X105	Y105	Z105	X106	Y106	Z106	X107	Y107	Z107	X108	Y108	Z108	X109	Y109	Z109	X110	Y110	Z110	X111	Y111	Z111	X112	Y112	Z112	X113	Y113	Z113	X114	Y114	Z114	X115	Y115	Z115	X116	Y116	Z116	X117	Y117	Z117	X118	Y118	Z118	X119	Y119	Z119	X120	Y120	Z120	X121	Y121	Z121	X122	Y122	Z122	X123	Y123	Z123	X124	Y124	Z124	X125	Y125	Z125	X126	Y126	Z126	X127	Y127	Z127	X128	Y128	Z128	X129	Y129	Z129	X130	Y130	Z130	X131	Y131	Z131	X132	Y132	Z132	X133	Y133	Z133	X134	Y134	Z134	X135	Y135	Z135	X136	Y136	Z136	X137	Y137	Z137	X138	Y138	Z138	X139	Y139	Z139	X140	Y140	Z140	X141	Y141	Z141	X142	Y142	Z142

346	2.8750	494.158536	-498.862714	1140.629292	523.959637	-319.361746	1435.657263	524.716437	-230.745032	1245.233297	520.579755	-230.568320	1193.698764	517.725348	-235.886410	1140.902638	521.791339	-333.717018	1448.444843	505.392015	-458.046615	1353.178501	832.993388	-231.420442	88.708118	409.947485	-202.166542	189.269021	768.589079	-224.747971	103.438333	468.428433	-230.621085	204.988971	645.000279	-430.698842	904.188931	380.319268	-406.037480	881.501734	585.691631	-205.800682	975.164592	465.405762	-197.214037	964.266717	652.701855	-412.987083	1392.543793	374.507576	-376.519829	1403.331280	787.835836	-387.825876	-11.077690	392.510712	-326.364666	51.296066	479.401559	-139.176771	166.857317	805.130959	-152.996585	42.140197	776.998699	-388.701409	478.931874	313.795328	-498.014659	482.393384	671.466053	-385.116279	450.075567	426.808774	-517.156959	465.619475	371.146560	-533.911288	1013.391972	634.843826	-567.619681	954.627693	209.260866	-334.923178	1061.173201	825.706482	-409.403741	1046.753883	283.308744	-288.666993	1037.970185	768.689871	-345.582098	1018.433571	654.852569	-550.461650	900.370955	369.649470	-515.755236	954.079390	433.290392	-431.158721	1370.908856	583.301842	-450.655907	1364.649057	473.886162	-496.145040	1634.109139	585.255444	-373.888046	1663.325787	575.621843	-502.767801	1630.747318	483.956248	-365.101635	1664.250493	792.680800	-339.804202	20.921540	863.112092	-318.117380	11.814010	403.784335	-292.475313	91.241255	345.129400	-238.059744	90.756372	520.708025	-218.793631	1008.485079	518.438935	-228.390858	1033.732295	517.365336	-236.010417	1063.091516	516.181648	-239.028677	1089.153886	516.802013	-238.342151	1114.307404	519.024849	-233.059302	1166.918039	522.590816	-229.951248	1220.330715	525.934815	-233.360827	1267.703176	528.275728	-243.050918	1308.015585	528.427482	-255.454272	1340.216756	527.669668	-277.111888	1381.923556	526.777029	-291.416049	1404.168010	525.913537	-305.128843	1420.987368	504.708529	-585.197508	1025.859237	523.795187	-612.251699	985.138834	526.345491	-602.840304	957.979977	516.899467	-584.980905	946.465075	501.601577	-567.582309	927.672267	498.758495	-601.329267	919.399083	487.442315	-611.108661	882.581353	490.085483	-604.390919	860.020101	508.231759	-589.459181	854.502380	530.790865	-579.596162	840.891540	520.071924	-341.767669	900.598764	513.875782	-297.412008	1025.292516	513.512492	-353.564769	1147.284150	510.163605	-372.310042	1197.032928	590.024889	-329.970390	825.025022	466.893911	-330.116957	803.702354	733.015954	-380.509228	473.898768	361.664951	-501.490474	479.423404	791.507185	-229.665458	80.274060	450.239211	-219.426200	183.931127	833.258748	-331.166923	-7.735658	367.720306	-264.424860	70.797279	507.953048	-390.077531	1407.687545	587.237537	-392.053813	1309.031129	434.645623	-365.753353	1317.398190	517.099321	-440.106899	1487.542629	716.960311	-407.729983	1275.065303	311.142325	-361.607373	1299.290895	799.360752	-375.388145	1033.077002	245.836392	-306.431532	1048.993468	639.005423	-557.177722	919.609070	380.518764	-528.856814	976.392269	555.853248	-625.075996	905.229628	526.848018	-637.976706	895.669818	507.797062	-626.106143	889.402926	560.276806	-629.204631	880.437970	532.611430	-635.892928	865.827918	512.802362	-622.146666	860.507905	585.293412	-600.226462	848.278165	567.632377	-599.079251	838.093996	550.780892	-588.911593	836.076379	574.302197	-615.694642	861.122072	546.734691	-620.328724	851.314068	526.603162	-606.370449	849.331141	586.618543	-573.899150	930.440247	555.551171	-580.172300	933.650315	532.552540	-594.720483	931.531310	450.180113	-610.742927	987.749875	478.443265	-629.347503	984.848022	500.412941	-621.165693	983.355820	452.298015	-615.010619	960.901737	481.255442	-627.134204	953.868210	503.673971	-617.115557	954.274714	444.359988	-582.178712	922.907710	464.120030	-583.426714	918.027222	482.102752	-575.953126	921.042860	447.472900	-599.492311	937.715054	475.290418	-609.269261	934.697688	497.288615	-598.492503	938.059211	422.081023	-552.713454	1004.912615	450.919420	-561.915338	1016.484499	472.821951	-578.621030	1020.568013	512.659773	-418.368161	892.845333	525.548697	-201.507360	969.715655	528.459400	-330.043674	814.363688	519.104235	-309.937760	931.280494	644.848198	-559.040666	927.499324	370.398015	-524.833262	983.735681	800.791234	-228.084207	96.073225	439.187959	-216.393813	197.128996	724.232376	-386.908844	464.503720	370.302051	-507.585809	474.006429	797.198176	-377.492920	1032.593727	246.284805	-311.795086	1049.571693	439.187959	-739.163160	197.128996	800.791234	-739.163160	96.073225	367.720306	-739.163160	70.797279	833.258748	-739.163160	-7.735658	392.510712	-739.163160	51.296066	787.835836	-739.163160	-11.077690	403.784335	-739.163160	91.241255	792.680800	-739.163160	20.921540	345.129400	-739.163160	90.756372	863.112092	-739.163160	11.814010	479.401559	-739.163160	166.857317	805.130959	-739.163160	42.140197
347	2.8833	497.211903	-499.225169	1134.405613	527.383506	-319.996685	1429.629445	527.915478	-231.353253	1239.268661	523.672819	-231.171280	1187.763453	520.766437	-236.479715	1134.954929	525.064766	-334.324241	1442.411304	508.772850	-458.577842	1347.000718	832.495034	-229.959384	85.364863	428.965986	-200.494125	193.253621	768.095911	-223.295435	99.963769	486.913919	-229.044452	210.377023	648.707569	-430.530161	898.881793	383.767933	-404.856950	874.412835	589.328885	-205.800518	970.321774	468.983144	-196.909919	958.707154	656.323016	-413.411975	1385.744691	377.745837	-376.446813	1396.765232	787.731767	-388.282090	-11.015194	416.937470	-322.495729	52.651986	498.631328	-136.833325	174.110577	804.885745	-152.134553	37.263975	780.553162	-392.904580	473.517179	322.287232	-502.396822	476.723462	674.851596	-388.825208	445.194572	435.801655	-521.403134	462.337792	374.189109	-534.667134	1007.673740	640.153825	-567.190886	945.646644	213.989437	-333.815068	1053.987265	830.748320	-409.539372	1040.248036	288.517237	-288.391620	1030.831099	774.138749	-345.718056	1011.630893	660.878539	-549.785197	891.777813	373.025417	-516.716540	948.351979	436.534554	-431.468278	1364.628673	586.794734	-451.185763	1358.272791	477.059603	-496.525854	1628.367662	588.281214	-374.124318	1657.698989	578.772008	-503.062308	1625.138760	486.964196	-365.449965	1658.401728	792.445779	-339.574248	19.957764	863.046288	-318.191946	10.687334	426.516116	-289.289922	93.580708	367.647409	-235.246077	92.006668	523.969710	-219.041049	1002.946019	521.568716	-228.844568	1028.073788	520.396829	-236.571684	1057.360411	519.196689	-239.618912	1083.305955	519.820869	-238.920674	1108.401895	522.088587	-233.650610	1160.970688	525.735974	-230.567783	1214.382768	529.199660	-233.962372	1261.724472	531.656742	-243.637741	1302.013874	531.854510	-256.059289	1334.182501	531.193674	-277.750880	1375.875711	530.304253	-292.084217	1398.119926	529.422820	-305.801302	1414.946318	507.558644	-585.865200	1021.400332	526.939273	-613.122106	980.790138	529.748738	-603.763640	953.517377	520.407081	-585.897982	941.879392	505.164385	-568.426311	922.937155	503.975809	-598.858416	908.802509	492.874652	-608.103752	871.706486	495.866388	-601.163864	849.319398	514.310718	-586.400568	844.103158	537.131429	-576.708734	830.776811	523.895800	-341.280282	894.391716	516.954482	-297.824025	1019.362569	516.767681	-353.919864	1141.380787	513.308585	-372.722626	1191.100240	594.362557	-329.051137	819.365919	471.374065	-328.833640	797.236621	736.688197	-384.333044	468.684167	370.168447	-505.833745	474.704087	790.901184	-228.079572	76.560006	469.443411	-217.491642	188.828930	833.215058	-331.699878	-8.668082	390.890300	-261.106938	72.378740	511.470377	-390.740633	1401.737213	590.570986	-392.670214	1302.932382	438.018680	-366.242081	1311.612487	520.305216	-440.533966	1481.774688	720.060825	-407.612026	1267.767787	314.716041	-360.752910	1292.521954	804.580390	-375.590414	1026.468635	250.923097	-305.744261	1041.797996	644.810915	-556.524575	910.828173	383.707821	-529.805303	970.747590	560.930014	-623.179495	894.942939	531.858325	-635.604203	884.963632	513.029754	-623.423815	878.619671	565.553904	-627.127290	870.158374	537.955105	-633.309484	855.203509	518.383265	-619.252741	849.817038	591.276765	-598.173141	838.538647	573.737919	-596.695304	828.187346	557.042480	-586.287498	826.097965	579.952717	-613.618016	851.118743	552.429259	-617.793739	840.986431	532.503486	-603.552997	838.935554	592.101216	-572.657645	920.963049	560.923040	-578.551412	923.795998	537.759125	-592.774153	921.301603	453.346997	-611.613929	982.778966	481.646061	-630.200744	980.123997	503.619850	-622.003853	978.782415	455.670536	-615.928710	955.955327	484.689802	-628.041565	949.162304	507.096648	-618.004024	949.719369	447.992772	-583.172441	917.842805	467.790008	-584.413230	913.113594	485.743523	-576.919556	916.251004	451.007873	-600.456536	932.704687	478.855103	-610.216320	929.914832	500.818729	-599.415600	933.422327	425.073028	-553.576291	999.623656	453.830779	-562.733650	1011.429310	475.715250	-579.414070	1015.708089	516.237751	-417.693555	886.647314	529.156014	-201.355219	964.514464	532.868311	-328.942388	808.301270	522.696882	-309.524387	925.580889	650.516182	-558.488041	918.712229	373.607263	-525.691837	978.012860	800.295472	-226.627409	92.664316	457.939953	-214.769289	201.815322	727.702379	-390.864894	459.355876	379.044443	-511.899978	469.530627	802.443534	-377.628714	1025.939465	251.253337	-311.103344	1042.409182	457.939953	-739.163160	201.815322	800.295472	-739.163160	92.664316	390.890300	-739.163160	72.378740	833.215058	-739.163160	-8.668082	416.937470	-739.163160	52.651986	787.731767	-739.163160	-11.015194	426.516116	-739.163160	93.580708	792.445779	-739.163160	19.957764	367.647409	-739.163160	92.006668	863.046288	-739.163160	10.687334	498.631328	-739.163160	174.110577	804.885745	-739.163160	37.263975
348	2.8917	500.264585	-499.802321	1128.099322	530.260444	-320.528507	1423.495531	530.964375	-231.803849	1233.094335	526.744545	-231.580988	1181.798697	523.770988	-236.670464	1129.205942	527.818918	-335.052103	1436.435938	511.790931	-459.155649	1340.816140	832.687855	-229.810566	81.566155	447.852254	-199.257046	196.472883	768.342197	-223.203659	95.907152	504.975796	-228.127450	215.626776	650.621831	-430.787265	893.551886	384.298801	-405.137748	869.670928	591.751516	-205.738768	964.187860	471.249968	-196.528912	953.111827	659.474790	-413.631737	1379.344583	380.703866	-376.517147	1390.250325	788.742542	-389.296591	-12.468161	441.634089	-320.837051	55.021342	518.223524	-135.563284	180.538476	805.188656	-152.392864	32.357033	782.536209	-395.786136	468.284369	329.935938	-506.301105	470.422029	676.733196	-392.712235	440.145433	443.972856	-525.030375	458.956361	377.345830	-535.520613	1001.331329	644.925237	-566.615105	936.330259	218.949348	-333.004951	1046.924829	834.718287	-409.687132	1034.091949	294.011921	-288.502812	1023.916245	778.320670	-345.907837	1005.461097	666.119456	-548.765957	882.820070	376.373380	-517.856002	941.955447	439.434499	-431.809574	1358.311892	589.982986	-451.627403	1352.035761	479.938835	-496.780783	1622.238398	590.892076	-374.211490	1651.180744	581.600964	-503.379405	1619.236827	489.609092	-365.652889	1651.695609	793.362737	-340.134889	17.700134	864.017844	-318.818092	8.234797	449.477285	-287.696600	96.300423	390.989006	-233.350605	92.103422	526.347816	-218.782857	997.361362	524.023831	-228.541672	1022.573590	522.966385	-236.282974	1051.906466	521.911979	-239.455119	1077.816129	522.635520	-238.938779	1102.864504	525.141776	-233.960241	1155.117273	528.786957	-231.020823	1208.301902	532.273769	-234.383643	1255.485654	534.757853	-243.983537	1295.689583	534.964979	-256.442755	1327.824950	534.271181	-278.170794	1369.488716	533.353269	-292.514652	1391.745090	532.418370	-306.248546	1408.638716	510.320544	-587.287068	1015.735030	529.671073	-615.106642	975.326955	532.528818	-605.830550	947.964191	523.339987	-587.958336	936.165571	508.183241	-570.450425	917.083144	508.955598	-597.688019	898.422599	498.097748	-606.617570	861.221135	501.176357	-599.491835	838.792682	519.807220	-584.591329	833.802700	542.796135	-574.713230	820.709884	525.506496	-341.543734	888.963223	519.388139	-297.528893	1013.781548	519.786477	-354.405552	1135.437250	516.333222	-373.294324	1185.124516	595.600128	-329.863608	813.501716	472.493649	-329.345852	792.043626	738.593459	-387.505084	463.472158	377.603859	-509.565413	469.374001	791.045904	-227.925852	72.449505	488.820046	-216.148436	193.224013	834.285557	-332.710713	-10.868730	415.016532	-259.444684	73.591232	514.564037	-391.089648	1395.781040	593.629241	-393.146008	1296.950340	441.087574	-366.665184	1305.656314	523.259461	-441.447437	1475.479841	723.025441	-407.727480	1261.293173	317.899585	-360.515803	1286.034226	808.660626	-375.798523	1020.375490	256.302148	-305.398256	1034.785628	649.909198	-555.668473	901.712179	386.878699	-530.974746	964.441478	566.028357	-622.024834	884.622157	537.004292	-634.303451	874.328434	518.238723	-622.030616	867.975831	570.812583	-625.741661	859.832346	543.305039	-631.732702	844.633460	523.792922	-617.591560	839.251339	596.795082	-596.528232	828.666627	579.328775	-594.921052	818.212450	562.664866	-584.465265	816.111386	585.361302	-612.074256	841.020882	557.899952	-616.105497	830.664158	538.011730	-601.811826	828.616798	597.106159	-571.808815	911.336720	565.900028	-577.676594	913.903296	542.730153	-591.835320	911.116362	456.026584	-613.106549	977.089047	484.224349	-631.869316	974.599063	506.247103	-623.805583	973.253489	458.378077	-617.591262	950.295746	487.341076	-629.908562	943.631411	509.803653	-619.995594	944.174528	450.961947	-585.015297	911.977410	470.761031	-586.396337	907.295048	488.750786	-578.986704	910.424411	453.849286	-602.229059	926.945925	481.645852	-612.163305	924.268663	503.663838	-601.467431	927.756786	428.051025	-554.811418	993.538260	456.732899	-564.063132	1005.454421	478.513449	-580.842435	1009.874225	517.460316	-417.962506	881.611407	531.500742	-201.133840	958.649844	534.046888	-329.604730	802.772671	524.480529	-309.548173	920.130625	655.522346	-557.690531	909.575164	376.859605	-526.688308	971.643388	800.515026	-226.507112	88.736653	476.414025	-213.692248	206.049830	729.634702	-394.249186	454.214901	386.954397	-515.665740	464.689195	806.519479	-377.797484	1019.776523	256.480634	-310.753882	1035.420537	476.414025	-739.163160	206.049830	800.515026	-739.163160	88.736653	415.016532	-739.163160	73.591232	834.285557	-739.163160	-10.868730	441.634089	-739.163160	55.021342	788.742542	-739.163160	-12.468161	449.477285	-739.163160	96.300423	793.362737	-739.163160	17.700134	390.989006	-739.163160	92.103422	864.017844	-739.163160	8.234797	518.223524	-739.163160	180.538476	805.188656	-739.163160	32.357033
349	2.9000	503.423452	-500.301540	1123.190403	533.033490	-320.780575	1418.301105	533.760309	-232.011244	1227.643132	529.480100	-231.906414	1176.296353	526.518941	-237.184361	1123.623252	530.609310	-335.505009	1431.361556	514.650404	-459.356338	1335.412621	832.530797	-229.384944	77.953659	466.730803	-198.864713	200.184837	768.095076	-222.820297	91.871880	523.198724	-227.799907	220.781401	654.046059	-431.109190	888.109088	386.989027	-404.762387	863.243818	594.931066	-206.252620	959.686756	474.324048	-196.842209	948.362172	662.339449	-413.838953	1373.792529	383.502871	-376.718074	1384.660840	789.900541	-390.042812	-14.094692	465.688080	-318.913072	57.204980	537.017226	-134.590223	187.324539	805.486977	-152.316585	27.694423	784.641802	-399.333477	462.786496	339.051753	-510.166228	464.773953	678.650200	-395.962328	435.049504	453.427345	-528.922677	456.011623	380.449593	-536.551893	995.919049	649.428070	-565.936685	928.278327	223.879129	-332.490742	1040.858626	838.281810	-409.519672	1028.932810	299.385190	-288.614631	1017.961621	782.161295	-345.597595	1000.246406	671.098650	-547.425449	875.202298	379.658788	-518.918753	936.549485	442.257613	-431.949943	1352.756023	592.833102	-451.882124	1346.518040	482.748389	-497.013748	1616.742969	593.636751	-374.320120	1645.212770	584.383428	-503.706098	1613.774180	492.373496	-365.822732	1645.608664	794.014812	-340.453684	15.404958	864.899993	-319.218129	6.519932	472.082138	-286.188722	99.052213	413.544893	-232.055917	93.617760	529.273748	-219.636902	992.271662	526.887059	-229.468659	1017.336249	525.767386	-237.157390	1046.576977	524.705410	-240.208313	1072.370529	525.389194	-239.549175	1097.359180	527.878463	-234.352693	1149.567485	531.548798	-231.281862	1202.833176	535.117924	-234.545395	1250.050187	537.647843	-244.084254	1290.274620	537.839472	-256.563127	1322.399497	537.131548	-278.331548	1364.038110	536.184132	-292.739540	1386.293650	535.214961	-306.472778	1403.258920	513.188243	-588.559687	1010.797739	532.596231	-616.498530	970.331967	535.557568	-607.200682	942.920685	526.456773	-589.271247	931.063950	511.315107	-571.667135	912.005246	513.839245	-596.647322	888.781607	503.280640	-605.155587	851.276219	506.620765	-597.690701	828.913271	525.332510	-582.659423	824.268341	548.555493	-572.439551	811.471224	528.821349	-341.672391	883.167446	522.405028	-298.731148	1008.344173	522.779107	-354.915082	1130.321503	519.212306	-373.798817	1180.002689	599.117637	-329.385638	807.991385	476.067662	-328.606933	786.219537	740.798116	-390.806049	458.070725	386.529505	-513.407826	464.613646	790.760577	-227.434859	68.289898	508.080244	-215.424225	197.869375	835.448921	-333.445251	-12.680512	438.294858	-258.016616	75.601600	517.439604	-391.029060	1390.706062	596.507668	-393.341690	1291.883469	443.962753	-366.854787	1300.514340	525.959015	-442.413241	1469.766259	725.778878	-407.780975	1255.718708	320.851117	-360.389292	1280.518174	812.360585	-375.537276	1015.181541	261.553019	-305.130213	1028.748035	654.707670	-554.637134	893.917382	390.002310	-532.139421	959.099770	571.057022	-620.797694	875.033975	542.146742	-632.945955	864.275873	523.434341	-620.595336	857.917130	576.089263	-624.149740	850.241244	548.738539	-629.938543	834.685326	529.268444	-615.734518	829.316735	602.353513	-594.466865	819.762766	584.990025	-592.720151	809.160709	568.338633	-582.246840	807.047188	590.811551	-610.199332	831.775665	563.457370	-614.099026	821.090043	543.578029	-599.791288	819.054186	601.825953	-570.953727	902.782917	570.601046	-576.880693	904.954791	547.472060	-591.013908	901.732862	459.002107	-614.378929	971.855521	487.180710	-633.178174	969.424188	509.218156	-625.143528	968.146682	461.420685	-618.840694	945.064366	490.384787	-631.191432	938.467085	512.859404	-621.309996	939.081371	454.154223	-586.216986	906.757951	473.964125	-587.620795	902.128279	491.955429	-580.239058	905.314147	456.976920	-603.449404	921.717346	484.766990	-613.419354	919.106305	506.790042	-602.757335	922.665119	431.062043	-556.061387	988.285482	459.698439	-565.364361	1000.270963	481.443673	-582.178056	1004.733682	520.517543	-417.935789	875.676453	534.627557	-201.547414	954.024464	537.592649	-328.996286	797.105461	527.572550	-309.741601	914.850459	660.263360	-556.681067	901.740313	380.054191	-527.735323	966.234267	800.312936	-226.102620	84.912769	494.964764	-213.332310	210.483119	731.646001	-397.647902	448.918000	396.239549	-519.544452	460.392788	810.221553	-377.558634	1014.589608	261.632159	-310.552686	1029.410124	494.964764	-739.163160	210.483119	800.312936	-739.163160	84.912769	438.294858	-739.163160	75.601600	835.448921	-739.163160	-12.680512	465.688080	-739.163160	57.204980	789.900541	-739.163160	-14.094692	472.082138	-739.163160	99.052213	794.014812	-739.163160	15.404958	413.544893	-739.163160	93.617760	864.899993	-739.163160	6.519932	537.017226	-739.163160	187.324539	805.486977	-739.163160	27.694423
